<?xml version="1.0" encoding="utf-8" standalone="yes"?>
<!DOCTYPE svg PUBLIC "-//W3C//DTD SVG 1.1//EN" "http://www.w3.org/Graphics/SVG/1.1/DTD/svg11.dtd">
<svg xmlns="http://www.w3.org/2000/svg" xmlns:xlink="http://www.w3.org/1999/xlink" version="1.1" id="Layer_1" x="0px" y="0px" width="156.155px" height="180px" viewBox="0 0 287.09 330.928" enable-background="new 0 0 287.09 330.928" xml:space="preserve" style="zoom: 1;"><g><path fill="#E4292B" d="M287.09,82.447l-0.014-0.025l-27.816-16.37l-10.629,6.259V59.843l-0.008-0.027l-27.816-16.369 l-10.813,6.364V37.237l-0.008-0.027l-27.811-16.367l-10.814,6.363V16.394l-0.012-0.024L143.539,0l-27.813,16.37v10.842 l-10.822-6.369L77.09,37.209v12.608l-10.822-6.371L38.455,59.816v12.5l-10.643-6.264L0,82.422v32.95l9.844,5.734L0,126.901v32.95 l9.848,5.736L0,171.382v32.948l9.848,5.74L0,215.861v32.949l27.82,16.209l10.428-6.068v11.832l27.82,16.203l10.785-6.275v12.039 l27.822,16.211l10.785-6.273v12.033l27.822,16.207l27.814-16.186v-12.1l10.848,6.318l27.816-16.186v-12.109l10.844,6.32 l27.82-16.178v-12.109l10.844,6.32l27.82-16.186v-32.945l-0.014-0.027l-9.826-5.781l9.84-5.727v-32.947l-0.014-0.024l-9.826-5.783 l9.84-5.723v-32.948l-0.014-0.027l-9.826-5.784l9.84-5.723V82.447z"></path><path fill="#C62C28" d="M143.51,42.812l-10.783,6.365l-0.01-11.967l-16.99-10V16.37l27.813,16.37L143.51,42.812z M104.9,53.626 l-27.814-16.37v12.575l16.992,10.032l-0.02,11.953l10.813-6.351L104.9,53.626z M182.176,53.579l-27.816-16.37v32.948l27.816,16.183 V53.579z M66.268,76.186l-27.813-16.37v12.492l17.168,10.115l0.031,11.771l10.408-6.1L66.268,76.186z M220.807,76.186 l-27.814-16.37v32.948l27.82,16.186L220.807,76.186z M27.813,232.234L0,215.861v32.949l27.813,16.182V232.234z M27.813,187.754 L0,171.382v32.948l27.813,16.182V187.754z M27.813,143.271L0,126.901v32.95l27.813,16.18V143.271z M27.813,98.792L0,82.422v32.948 l27.813,16.184V98.792z M66.059,254.201l-27.811-16.363v32.945l27.813,16.18L66.059,254.201z M104.666,276.174l-27.813-16.371 v32.947l27.814,16.186L104.666,276.174z M259.26,232.234l-10.83-6.377l-9.844,6.18l9.826,5.801l0.021,20.854l10.832,6.301 L259.26,232.234z M259.26,187.754l-10.834-6.383l-9.84,6.199l9.84,26.639l10.84,6.303L259.26,187.754z M259.26,143.271 l-27.811-16.37v32.95l27.816,16.18L259.26,143.271z M259.26,98.792l-27.811-16.37v32.948l27.816,16.184L259.26,98.792z M220.596,254.201l-10.844-6.381l-9.838,6.189l9.838,5.793l0.01,20.855l10.84,6.305L220.596,254.201z M181.938,276.174 l-10.832-6.375l-9.848,6.199l9.83,5.777l0.01,20.854l10.844,6.307L181.938,276.174z M143.273,298.145l-27.813-16.369v32.945 l27.816,16.18L143.273,298.145z"></path><path fill="#F27523" d="M248.426,104.418l-0.014-0.025l-27.816-16.37l-10.627,6.257V81.812l-0.01-0.025l-27.814-16.37L171.33,71.78 V59.206l-0.008-0.024l-27.813-16.37l-27.813,16.37v12.606l-10.822-6.37l-27.813,16.37v12.711l-11.004-6.475l-27.811,16.37v32.948 l9.846,5.736l-9.846,5.795v32.948l9.846,5.736l-9.846,5.799v32.945l27.82,16.209l10.785-6.275v12.039l27.822,16.207l10.785-6.275 v12.039l27.822,16.203l27.814-16.182V258.16l10.848,6.32l27.816-16.186v-12.105l10.844,6.32l27.82-16.182v-32.949l-0.014-0.023 l-9.826-5.785l9.84-5.723V148.9l-0.014-0.027l-9.826-5.783l9.84-5.723V104.418z"></path><path fill="#DF5A26" d="M143.512,108.312l-10.877-9.435l0.053-17.09l-16.99-10V59.181L143.51,75.55L143.512,108.312z M104.875,98.157l-27.813-16.37v12.711l16.811,9.895l0.02,12.485l10.984,14.04L104.875,98.157z M182.145,98.157l-27.813-16.37 v32.948l27.816,16.184L182.145,98.157z M66.059,209.721l-27.811-16.365v32.945l27.813,16.186L66.059,209.721z M66.059,165.242 l-27.811-16.369v32.948l27.813,16.186L66.059,165.242z M66.059,120.763l-27.811-16.37v32.948l27.813,16.184L66.059,120.763z M104.666,231.691l-27.813-16.369v32.951l27.814,16.18L104.666,231.691z M220.596,209.725l-10.844-6.381l-9.83,6.197l9.83,5.781 l0.01,20.854l10.84,6.311L220.596,209.725z M220.596,165.242l-27.811-16.369v32.948l27.816,16.186L220.596,165.242z M220.596,120.763l-27.811-16.37v32.948l27.816,16.184L220.596,120.763z M181.938,231.697l-10.84-6.383l-9.82,6.203l9.824,5.781 v20.854l10.84,6.301L181.938,231.697z M143.273,253.664l-27.813-16.371v32.951l27.816,16.182L143.273,253.664z"></path><path fill="#FFD10A" d="M209.762,126.387l-0.01-0.024l-27.814-16.368l-10.633,6.257v-12.469l-0.01-0.025L143.48,87.389 l-27.811,16.369v12.711l-11.004-6.475l-27.813,16.368v32.949l9.848,5.736l-9.848,5.795v32.948L104.676,220l10.785-6.275v12.039 l27.822,16.203l27.814-16.182V213.68l10.848,6.32l27.816-16.186v-32.946l-0.01-0.025l-9.83-5.783l9.84-5.723V126.387z"></path><path fill="#E99923" d="M104.668,219.973l-27.814-16.182v-32.948l27.813,16.372L104.668,219.973z M104.666,142.732l-27.813-16.369 v32.949l27.814,16.18L104.666,142.732z M181.938,142.732l-27.816-16.369v32.949l27.82,16.18L181.938,142.732z M143.482,132.087 l-0.002-11.961l-27.811-16.368v12.711l16.809,9.893l0.027,14.116L143.482,132.087z M181.938,187.215l-10.844-6.381l-9.836,6.201 l9.848,5.68l-0.004,20.955l10.84,6.303L181.938,187.215z M143.273,209.182l-27.813-16.365v32.947l27.816,16.18L143.273,209.182z"></path><polygon fill="#C51F87" points="171.088,148.333 143.273,131.964 115.461,148.333 115.461,181.281 143.283,197.49 171.098,181.309 171.098,148.359"></polygon><path opacity="0.3" fill="#FFFFFF" d="M143.539,0l27.811,16.37l-27.811,16.37l-27.813-16.37L143.539,0z M77.09,37.209l27.814,16.37 l27.813-16.37l-27.813-16.367L77.09,37.209z M154.359,37.209l27.816,16.37l27.811-16.37l-27.811-16.367L154.359,37.209z M115.697,59.181L143.51,75.55l27.813-16.369l-27.813-16.37L115.697,59.181z M38.455,59.816l27.813,16.37l27.813-16.37 L66.268,43.447L38.455,59.816z M77.063,81.787l27.813,16.37l27.813-16.37l-27.813-16.37L77.063,81.787z M192.992,59.816 l27.814,16.37l27.816-16.37l-27.816-16.369L192.992,59.816z M154.332,81.787l27.813,16.37l27.814-16.37l-27.814-16.37 L154.332,81.787z M115.67,103.758l27.811,16.368l27.814-16.368L143.48,87.389L115.67,103.758z M0,215.861l27.813,16.373 l10.436-6.145l-0.025-11.619l-10.402,6.068L9.85,210.066L0,215.861z M0,171.382l27.813,16.372l10.42-6.135l0.014-11.63 l-10.426,6.068L9.855,165.582L0,171.382z M0,126.901l27.813,16.37l10.436-6.141l-0.004-11.623l-10.424,6.071L9.861,121.1L0,126.901 z M0,82.422l27.813,16.37l27.811-16.37l-27.811-16.37L0,82.422z M38.248,237.838l27.811,16.363l10.795-6.35l-0.004-11.613 l-10.787,6.275l-17.971-10.477L38.248,237.838z M38.248,193.355l27.811,16.365l10.791-6.346l0.004-11.625l-10.777,6.266 l-17.988-10.455L38.248,193.355z M38.248,148.873l27.811,16.369l10.787-6.349l0.01-11.616l-10.785,6.25l-17.986-10.444 L38.248,148.873z M38.248,104.394l27.811,16.37l27.814-16.37l-27.814-16.37L38.248,104.394z M76.854,259.803l27.813,16.371 l10.793-6.352l0.006-11.604l-10.795,6.262L86.699,254.01L76.854,259.803z M76.854,215.322l27.813,16.369l10.789-6.346l0.018-11.607 L104.678,220l-17.975-10.473L76.854,215.322z M76.854,170.843l27.813,16.372l10.791-6.355l0.004-11.602l-10.783,6.234 l-17.971-10.447L76.854,170.843z M76.854,126.363l27.813,16.369l27.813-16.369l-27.813-16.368L76.854,126.363z M248.43,225.857 l10.83,6.377l27.816-16.373l-9.83-5.781l-17.977,10.459l-10.84-6.32V225.857z M248.426,181.371l10.834,6.383l27.816-16.372 l-9.844-5.795l-17.963,10.47l-10.844-6.327V181.371z M248.426,136.893l10.834,6.378l27.816-16.37l-9.834-5.788l-17.973,10.465 l-10.854-6.327L248.426,136.893z M231.449,82.422l27.811,16.37l27.816-16.37l-27.816-16.37L231.449,82.422z M209.77,236.207 l-0.018,11.613l10.844,6.381l27.816-16.363l-9.834-5.791l-17.963,10.449L209.77,236.207z M209.77,191.705l-0.018,11.639 l10.844,6.381l27.816-16.369l-9.83-5.789l-17.973,10.43L209.77,191.705z M209.762,147.22l0.004,11.646l10.83,6.375l27.816-16.369 l-9.826-5.783l-17.977,10.451L209.762,147.22z M192.785,104.394l27.811,16.37l27.816-16.37l-27.816-16.37L192.785,104.394z M171.105,258.17v11.629l10.832,6.375l27.814-16.371l-9.838-5.789l-17.973,10.459L171.105,258.17z M171.105,213.658l-0.008,11.656 l10.84,6.383l27.814-16.375l-9.83-5.781l-17.963,10.467L171.105,213.658z M171.098,169.189l-0.004,11.645l10.844,6.381 l27.814-16.372l-9.834-5.785l-17.967,10.429L171.098,169.189z M154.121,126.363l27.816,16.369l27.814-16.369l-27.814-16.368 L154.121,126.363z M115.461,281.775l27.813,16.369l27.814-16.369l-9.83-5.787l-17.973,10.463l-17.975-10.471L115.461,281.775z M115.461,237.293l27.813,16.371l27.824-16.357l-9.844-5.803l-17.975,10.463L125.307,231.5L115.461,237.293z M115.461,192.816 l27.813,16.365l27.832-16.467l-9.848-5.688l-17.973,10.467l-17.979-10.477L115.461,192.816z M115.461,148.333l27.813,16.37 l27.814-16.37l-27.814-16.369L115.461,148.333z"></path><polygon fill="#A01F5F" points="143.277,197.467 115.461,181.281 115.461,148.333 143.273,164.704"></polygon></g></svg>